<svg width="55" height="44" viewBox="0 0 55 44" fill="none" xmlns="http://www.w3.org/2000/svg">
<path d="M6.38473 2.2723C12.0459 2.2723 18.2814 1.18704 23.0975 4.02003C28.612 7.26386 28.013 15.4345 28.013 20.9512V30.7823M28.013 30.7823V41.9787C24.0547 41.9787 19.0603 41.9787 16.0547 41.9787C10.4473 41.9787 2.46673 42.6664 2.01538 36.6263C1.69999 32.4055 6.31568 27.9527 8.35093 27.8329C10.5124 27.7058 12.7551 27.4345 15.0547 27.205C17.604 26.9506 20.2232 26.7477 22.879 26.8498C25.9936 26.9696 28.013 27.7556 28.013 30.7823ZM19.0547 2.48219C22.4932 2.48219 58.5454 -0.975796 52.0984 10.6289C47.9603 18.0775 36.7221 17.9826 29.0547 17.9826M25.7676 27.0583H28.1269C29.3977 27.0583 30.6581 27.1923 31.9284 27.1994C32.6018 27.2032 42.458 27.0847 43.0547 27.4824" stroke="#08006A" stroke-width="3" stroke-linecap="round"/>
</svg>
